<svg width="389" height="38" viewBox="0 0 389 38" xmlns="http://www.w3.org/2000/svg"><title>Ian Svoboda Logo</title><path d="M20 31v-6.217L7.616 20.585l-1.537-.55 1.537-.574L20 15.194V9L0 17.42v5.16L20 31zm28 4v-5.277h-6.409V6.3H48V1H29v5.3h6.25v23.423H29V35h19zm11.907 0l2.006-7.099H72.11L74.093 35H81L70.08 1h-5.95L53 35h6.907zM71 22h-7l3.546-12L71 22zm19.432 13V13.073L99.636 35H106V1h-6.41l-.022 21.834L90.432 1H84v34h6.432zm62.661 0c1.721 0 3.31-.207 4.767-.62 1.458-.414 2.714-1.027 3.768-1.838a8.508 8.508 0 002.477-2.938c.597-1.163.895-2.494.895-3.992 0-1.732-.395-3.262-1.186-4.589-.79-1.326-1.853-2.489-3.186-3.488a17.962 17.962 0 00-2.907-1.615 24.671 24.671 0 00-3.326-1.194 27.387 27.387 0 01-2.918-.96c-.86-.343-1.593-.726-2.198-1.147-.605-.406-1.066-.866-1.384-1.382a3.232 3.232 0 01-.476-1.732c0-.609.12-1.174.36-1.697.24-.523.593-.98 1.058-1.37.465-.374 1.035-.667 1.71-.878.674-.21 1.445-.316 2.313-.316.946 0 1.772.129 2.477.386.706.258 1.299.613 1.78 1.066a4.644 4.644 0 011.057 1.662c.24.64.376 1.342.407 2.107h6.372c0-1.53-.294-2.934-.883-4.214a9.984 9.984 0 00-2.465-3.325c-1.055-.92-2.314-1.638-3.78-2.153C156.36.258 154.746 0 152.978 0c-1.706 0-3.287.222-4.744.667-1.458.445-2.721 1.081-3.791 1.908a8.94 8.94 0 00-2.512 2.997c-.604 1.17-.907 2.474-.907 3.91 0 1.248.229 2.403.686 3.464.458 1.062 1.136 2.03 2.035 2.903.9.875 2.058 1.678 3.477 2.412 1.419.733 3.066 1.358 4.942 1.873 1.21.328 2.22.683 3.035 1.065.814.382 1.476.8 1.988 1.253.496.468.849.967 1.058 1.498.21.53.314 1.1.314 1.709s-.124 1.167-.372 1.674c-.248.507-.605.94-1.07 1.3-.465.358-1.035.639-1.709.842-.674.203-1.446.304-2.314.304-.977 0-1.872-.109-2.686-.327-.814-.219-1.508-.562-2.081-1.03a4.687 4.687 0 01-1.373-1.803c-.325-.734-.503-1.616-.534-2.646H140c0 1.764.337 3.301 1.012 4.612a10.898 10.898 0 002.755 3.418c1.225.984 2.663 1.729 4.314 2.236 1.652.507 3.322.761 5.012.761zm30.704 0L194 1h-7.172l-5.738 22.184-.625 2.312-.578-2.289L174.172 1H167l10.18 34h6.617zm24.527 0c1.25 0 2.417-.152 3.503-.456a12.06 12.06 0 002.987-1.275c1-.624 1.89-1.404 2.671-2.34a14.416 14.416 0 001.969-3.088c.5-1.123.882-2.344 1.148-3.662.265-1.317.398-2.71.398-4.176v-4.96c0-1.544-.144-3.002-.433-4.375a17.006 17.006 0 00-1.254-3.79 14.265 14.265 0 00-1.792-2.784 10.463 10.463 0 00-2.425-2.152A10.994 10.994 0 00211.99.503a13.105 13.105 0 00-3.69-.503c-1.297 0-2.5.164-3.608.491a10.595 10.595 0 00-3 1.404 11.106 11.106 0 00-2.401 2.246 13.696 13.696 0 00-1.769 2.925 17.388 17.388 0 00-1.136 3.72 22.542 22.542 0 00-.387 4.257v4.96c0 1.404.113 2.738.34 4.001.226 1.263.558 2.433.996 3.51a13.612 13.612 0 001.804 3.146c.718.928 1.53 1.72 2.436 2.375a11.34 11.34 0 003.07 1.45c1.124.343 2.35.515 3.678.515zm.01-5c-.65 0-1.228-.1-1.737-.302a4.29 4.29 0 01-1.362-.86c-.427-.42-.8-.966-1.117-1.64a9.645 9.645 0 01-.72-2.245 14.762 14.762 0 01-.31-2.116c-.058-.76-.088-1.55-.088-2.372v-4.977c0-.868.033-1.697.1-2.488.066-.79.173-1.52.32-2.186.192-.868.462-1.628.808-2.28a5.609 5.609 0 011.273-1.627c.369-.295.786-.52 1.25-.674a4.913 4.913 0 011.56-.233c.606 0 1.155.085 1.65.256.494.17.94.41 1.339.72.501.42.937.958 1.306 1.617s.664 1.407.885 2.244c.177.667.306 1.392.387 2.175.081.783.122 1.608.122 2.476v4.977c0 .837-.04 1.644-.122 2.419a15.566 15.566 0 01-.365 2.14 9.895 9.895 0 01-.83 2.243 5.562 5.562 0 01-1.273 1.64 4.14 4.14 0 01-1.372.814 4.996 4.996 0 01-1.704.279zm29.815 5c1.83 0 3.477-.21 4.942-.63 1.464-.42 2.707-1.051 3.729-1.892a8.35 8.35 0 002.356-3.13c.55-1.245.824-2.685.824-4.32a9.31 9.31 0 00-.332-2.486 7.65 7.65 0 00-1.018-2.23 7.208 7.208 0 00-1.636-1.682c-.648-.482-1.521-.88-2.62-1.19v-.024a7.849 7.849 0 002.792-1.821 6.814 6.814 0 001.521-2.394 8.54 8.54 0 00.538-2.907c0-1.588-.286-2.966-.858-4.133a7.717 7.717 0 00-2.437-2.896c-1.052-.763-2.322-1.33-3.809-1.705-1.487-.373-3.138-.56-4.953-.56H226v34h12.149zm-.535-20H233V6h4.592c1 .016 1.872.134 2.616.353.743.22 1.335.574 1.777 1.06.338.346.592.778.761 1.296.17.519.254 1.123.254 1.815 0 .66-.1 1.248-.298 1.767a3.653 3.653 0 01-.85 1.319c-.441.455-1.023.797-1.744 1.025-.721.228-1.552.35-2.494.365zm.044 14H232V19h5.93c.89.016 1.66.145 2.309.386.649.24 1.177.586 1.584 1.036.407.433.705.964.894 1.59.189.627.283 1.333.283 2.12 0 .756-.124 1.438-.373 2.049a4.217 4.217 0 01-1.098 1.566c-.438.386-.985.69-1.641.916-.657.225-1.4.337-2.23.337zm27.666 6c1.25 0 2.417-.152 3.503-.456a12.06 12.06 0 002.987-1.275c1-.624 1.89-1.404 2.671-2.34a14.416 14.416 0 001.969-3.088c.5-1.123.882-2.344 1.148-3.662.265-1.317.398-2.71.398-4.176v-4.96c0-1.544-.144-3.002-.433-4.375a17.006 17.006 0 00-1.254-3.79 14.265 14.265 0 00-1.792-2.784 10.463 10.463 0 00-2.425-2.152A10.994 10.994 0 00268.99.503a13.105 13.105 0 00-3.69-.503c-1.297 0-2.5.164-3.608.491a10.595 10.595 0 00-3 1.404 11.106 11.106 0 00-2.401 2.246 13.696 13.696 0 00-1.769 2.925 17.388 17.388 0 00-1.136 3.72 22.542 22.542 0 00-.387 4.257v4.96c0 1.404.113 2.738.34 4.001.226 1.263.558 2.433.996 3.51a13.612 13.612 0 001.804 3.146c.718.928 1.53 1.72 2.436 2.375a11.34 11.34 0 003.07 1.45c1.124.343 2.35.515 3.678.515zm.01-5c-.65 0-1.228-.1-1.737-.302a4.29 4.29 0 01-1.362-.86c-.427-.42-.8-.966-1.117-1.64a9.645 9.645 0 01-.72-2.245 14.762 14.762 0 01-.31-2.116c-.058-.76-.088-1.55-.088-2.372v-4.977c0-.868.033-1.697.1-2.488.066-.79.173-1.52.32-2.186.192-.868.462-1.628.808-2.28a5.609 5.609 0 011.273-1.627c.369-.295.786-.52 1.25-.674a4.913 4.913 0 011.56-.233c.606 0 1.155.085 1.65.256.494.17.94.41 1.339.72.501.42.937.958 1.306 1.617s.664 1.407.885 2.244c.177.667.306 1.392.387 2.175.081.783.122 1.608.122 2.476v4.977c0 .837-.04 1.644-.122 2.419a15.566 15.566 0 01-.365 2.14 9.895 9.895 0 01-.83 2.243 5.562 5.562 0 01-1.273 1.64 4.14 4.14 0 01-1.372.814 4.996 4.996 0 01-1.704.279zm26.526 5c1.465 0 2.844-.187 4.136-.56a13.097 13.097 0 003.546-1.612 11.97 11.97 0 002.538-2.206 16.26 16.26 0 002.017-2.884 16.767 16.767 0 001.404-3.853c.333-1.401.499-2.888.499-4.46v-2.803c0-1.634-.178-3.176-.533-4.623a16.58 16.58 0 00-1.506-3.97 15.682 15.682 0 00-1.96-2.72 11.208 11.208 0 00-2.55-2.114 13.554 13.554 0 00-3.625-1.623c-1.33-.381-2.757-.572-4.283-.572H283v34h8.86zm-.433-6H289V6h2.112c.764 0 1.472.088 2.124.264a7.072 7.072 0 011.786.746c.705.428 1.323.98 1.854 1.653a8.732 8.732 0 011.293 2.295c.27.72.475 1.511.618 2.376.142.864.213 1.779.213 2.743v2.8c0 1.026-.071 1.978-.213 2.858a12.53 12.53 0 01-.618 2.399 9.678 9.678 0 01-1.18 2.169 6.659 6.659 0 01-1.54 1.526 6.417 6.417 0 01-1.842.873 7.67 7.67 0 01-2.18.298zm23.48 6l2.006-7.099h10.197L329.093 35H336L325.08 1h-5.95L308 35h6.907zM326 22h-7l3.546-12L326 22zm21.12 16L360 1h-6.12L341 38h6.12zM368 31l21-8.41v-5.202L368 9v6.165l13.393 4.33 1.4.46-1.423.457-13.37 4.4V31z" fill="currentColor" fill-rule="nonzero"/></svg>