<?xml version="1.0" encoding="UTF-8"?>
<svg width="389px" height="38px" viewBox="0 0 389 38" version="1.1" xmlns="http://www.w3.org/2000/svg" xmlns:xlink="http://www.w3.org/1999/xlink">
    <!-- Generator: Sketch 64 (93537) - https://sketch.com -->
    <title>Ian Svoboda Logo</title>
    <g stroke="none" stroke-width="1" fill="none" fill-rule="evenodd">
        <g class="logo-svg" transform="translate(-57.000000, -78.000000)" fill="currentColor" fill-rule="nonzero">
            <path d="M77,109 L77,102.783107 L64.6158192,98.5849844 L63.079096,98.0344108 L64.6158192,97.4608968 L77,93.193952 L77,87 L57,95.4191867 L57,100.580813 L77,109 Z M105,113 L105,107.722527 L98.5914489,107.722527 L98.5914489,84.3008242 L105,84.3008242 L105,79 L86,79 L86,84.3008242 L92.2505938,84.3008242 L92.2505938,107.722527 L86,107.722527 L86,113 L105,113 Z M116.906667,113 L118.913333,105.901099 L129.11,105.901099 L131.093333,113 L138,113 L127.08,79 L121.13,79 L110,113 L116.906667,113 Z M128,100 L121,100 L124.546358,88 L128,100 Z M147.431818,113 L147.431818,91.0728022 L156.636364,113 L163,113 L163,79 L156.590909,79 L156.568182,100.833791 L147.431818,79 L141,79 L141,113 L147.431818,113 Z M210.093023,113 C211.813953,113 213.403101,112.7932 214.860465,112.379599 C216.317829,111.965998 217.573643,111.3534 218.627907,110.541806 C219.682171,109.745819 220.507752,108.766444 221.104651,107.603679 C221.70155,106.440914 222,105.110368 222,103.61204 C222,101.879599 221.604651,100.350056 220.813953,99.0234114 C220.023256,97.696767 218.96124,96.5340022 217.627907,95.5351171 C216.744186,94.9264214 215.775194,94.3879599 214.72093,93.9197324 C213.666667,93.451505 212.55814,93.0535117 211.395349,92.7257525 C210.310078,92.4292085 209.337209,92.1092531 208.476744,91.7658863 C207.616279,91.4225195 206.883721,91.0401338 206.27907,90.6187291 C205.674419,90.212932 205.213178,89.7525084 204.895349,89.2374582 C204.577519,88.722408 204.418605,88.1449275 204.418605,87.5050167 C204.418605,86.8963211 204.53876,86.3305463 204.77907,85.8076923 C205.01938,85.2848384 205.372093,84.8283166 205.837209,84.4381271 C206.302326,84.0635452 206.872093,83.770903 207.546512,83.5602007 C208.22093,83.3494983 208.992248,83.2441472 209.860465,83.2441472 C210.806202,83.2441472 211.631783,83.3729097 212.337209,83.6304348 C213.042636,83.8879599 213.635659,84.2430323 214.116279,84.6956522 C214.581395,85.1638796 214.934109,85.7179487 215.174419,86.3578595 C215.414729,86.9977703 215.550388,87.7001115 215.581395,88.4648829 L221.953488,88.4648829 C221.953488,86.93534 221.658915,85.5306577 221.069767,84.2508361 C220.48062,82.9710145 219.658915,81.8628763 218.604651,80.9264214 C217.550388,80.0055741 216.290698,79.2876254 214.825581,78.7725753 C213.360465,78.2575251 211.744186,78 209.976744,78 C208.271318,78 206.689922,78.222408 205.232558,78.6672241 C203.775194,79.1120401 202.511628,79.7480491 201.44186,80.5752508 C200.372093,81.4024526 199.534884,82.4013378 198.930233,83.5719064 C198.325581,84.7424749 198.023256,86.0457079 198.023256,87.4816054 C198.023256,88.7302118 198.251938,89.8851728 198.709302,90.9464883 C199.166667,92.0078038 199.844961,92.9754738 200.744186,93.8494983 C201.643411,94.7235229 202.802326,95.5273133 204.22093,96.2608696 C205.639535,96.9944259 207.286822,97.6187291 209.162791,98.1337793 C210.372093,98.4615385 211.383721,98.8166109 212.197674,99.1989967 C213.011628,99.5813824 213.674419,99.9988852 214.186047,100.451505 C214.682171,100.919732 215.034884,101.419175 215.244186,101.949833 C215.453488,102.480491 215.55814,103.050167 215.55814,103.658863 C215.55814,104.267559 215.434109,104.82553 215.186047,105.332776 C214.937984,105.840022 214.581395,106.273133 214.116279,106.632107 C213.651163,106.991081 213.081395,107.272018 212.406977,107.474916 C211.732558,107.677815 210.96124,107.779264 210.093023,107.779264 C209.116279,107.779264 208.22093,107.670011 207.406977,107.451505 C206.593023,107.232999 205.899225,106.889632 205.325581,106.421405 C204.736434,105.953177 204.27907,105.352285 203.953488,104.618729 C203.627907,103.885173 203.449612,103.003344 203.418605,101.973244 L197,101.973244 C197,103.736901 197.337209,105.274247 198.011628,106.585284 C198.686047,107.896321 199.604651,109.035674 200.767442,110.003344 C201.992248,110.986622 203.430233,111.731884 205.081395,112.23913 C206.732558,112.746377 208.403101,113 210.093023,113 Z M240.796915,113 L251,79 L243.827763,79 L238.089974,101.184066 L237.465296,103.495879 L236.886889,101.207418 L231.172237,79 L224,79 L234.179949,113 L240.796915,113 Z M265.324274,113 C266.573883,113 267.741487,112.847928 268.827085,112.543783 C269.912684,112.239639 270.908466,111.814617 271.814433,111.268717 C272.814121,110.644831 273.704467,109.864973 274.485473,108.929144 C275.266479,107.993316 275.922524,106.963904 276.453608,105.840909 C276.953452,104.717914 277.336145,103.497438 277.601687,102.179479 C277.867229,100.86152 278,99.4694742 278,98.0033422 L278,93.0434492 C278,91.4993316 277.855514,90.0409982 277.566542,88.6684492 C277.27757,87.2959002 276.859731,86.0325312 276.313027,84.8783422 C275.813183,83.8645276 275.215714,82.9364973 274.520619,82.0942513 C273.825523,81.2520053 273.017182,80.5345365 272.095595,79.9418449 C271.174008,79.317959 270.139175,78.8383467 268.991097,78.503008 C267.843018,78.1676693 266.612933,78 265.300843,78 C264.004374,78 262.801624,78.1637701 261.692596,78.4913102 C260.583568,78.8188503 259.58388,79.2867647 258.693533,79.8950535 C257.787566,80.5189394 256.987035,81.2676025 256.29194,82.1410428 C255.596845,83.0144831 255.007185,83.9893048 254.522962,85.065508 C254.023118,86.2040998 253.64433,87.4440731 253.386598,88.7854278 C253.128866,90.1267825 253,91.546123 253,93.0434492 L253,98.0033422 C253,99.4070856 253.113246,100.740642 253.339738,102.004011 C253.566229,103.26738 253.898157,104.437166 254.33552,105.513369 C254.819744,106.683155 255.421118,107.732063 256.139644,108.660094 C256.858169,109.588124 257.670415,110.379679 258.576382,111.034759 C259.497969,111.658645 260.521087,112.142157 261.645736,112.485294 C262.770384,112.828431 263.996564,113 265.324274,113 Z M265.334004,108 C264.684775,108 264.105634,107.899225 263.596579,107.697674 C263.087525,107.496124 262.633803,107.209302 262.235412,106.837209 C261.807512,106.418605 261.434943,105.872093 261.117706,105.197674 C260.800469,104.523256 260.560698,103.775194 260.39839,102.953488 C260.250838,102.302326 260.147552,101.596899 260.088531,100.837209 C260.02951,100.077519 260,99.2868217 260,98.4651163 L260,93.4883721 C260,92.620155 260.033199,91.7906977 260.099598,91 C260.165996,90.2093023 260.272971,89.4806202 260.420523,88.8139535 C260.612341,87.9457364 260.881623,87.1860465 261.22837,86.5348837 C261.575117,85.8837209 261.999329,85.3410853 262.501006,84.9069767 C262.869886,84.6124031 263.28672,84.3875969 263.751509,84.2325581 C264.216298,84.0775194 264.736419,84 265.311871,84 C265.916834,84 266.466465,84.0852713 266.960765,84.255814 C267.455064,84.4263566 267.901408,84.6666667 268.299799,84.9767442 C268.801476,85.3953488 269.236754,85.9341085 269.605634,86.5930233 C269.974514,87.251938 270.269618,88 270.490946,88.8372093 C270.668008,89.503876 270.797116,90.2286822 270.87827,91.0116279 C270.959423,91.7945736 271,92.620155 271,93.4883721 L271,98.4651163 C271,99.3023256 270.959423,100.108527 270.87827,100.883721 C270.797116,101.658915 270.675386,102.372093 270.513078,103.023256 C270.306506,103.860465 270.029846,104.608527 269.683099,105.267442 C269.336351,105.926357 268.91214,106.472868 268.410463,106.906977 C268.012072,107.263566 267.554661,107.534884 267.038229,107.72093 C266.521797,107.906977 265.953722,108 265.334004,108 Z M295.148713,113 C296.979028,113 298.626311,112.789835 300.090562,112.369505 C301.554814,111.949176 302.797903,111.318681 303.819828,110.478022 C304.841754,109.637363 305.627264,108.594322 306.176358,107.348901 C306.725453,106.10348 307,104.663462 307,103.028846 C307,102.172619 306.889418,101.343636 306.668255,100.541896 C306.447092,99.7401557 306.107722,98.9967949 305.650143,98.3118132 C305.207817,97.6735348 304.662536,97.1130952 304.014299,96.6304945 C303.366063,96.1478938 302.49285,95.7509158 301.394662,95.4395604 L301.394662,95.4162088 C301.959009,95.1982601 302.473785,94.9336081 302.93899,94.6222527 C303.404194,94.3108974 303.819828,93.9684066 304.185891,93.5947802 C304.857007,92.9097985 305.364156,92.1119505 305.70734,91.2012363 C306.050524,90.290522 306.229743,89.3214286 306.244995,88.293956 C306.244995,86.706044 305.959009,85.3282967 305.387035,84.1607143 C304.815062,82.9931319 304.00286,82.0279304 302.950429,81.2651099 C301.897998,80.5022894 300.628217,79.9340659 299.141087,79.5604396 C297.653956,79.1868132 296.00286,79 294.187798,79 L283,79 L283,113 L295.148713,113 Z M294.613687,93 L290,93 L290,84 L294.591611,84 C295.592347,84.0157068 296.464312,84.1335079 297.207506,84.3534031 C297.950699,84.5732984 298.543046,84.9267016 298.984547,85.4136126 C299.323032,85.7591623 299.576895,86.1910995 299.746137,86.7094241 C299.915379,87.2277487 300,87.8324607 300,88.5235602 C300,89.1832461 299.900662,89.7722513 299.701987,90.2905759 C299.503311,90.8089005 299.220015,91.2486911 298.852097,91.6099476 C298.410596,92.065445 297.829286,92.4070681 297.108168,92.6348168 C296.387049,92.8625654 295.555556,92.9842932 294.613687,93 Z M294.658436,107 L289,107 L289,97 L294.930041,97 C295.820302,97.0160643 296.589849,97.1445783 297.238683,97.3855422 C297.887517,97.626506 298.415638,97.9718876 298.823045,98.4216867 C299.230453,98.8554217 299.528464,99.3855422 299.717078,100.012048 C299.905693,100.638554 300,101.345382 300,102.13253 C300,102.88755 299.875514,103.570281 299.626543,104.180723 C299.377572,104.791165 299.01166,105.313253 298.528807,105.746988 C298.091221,106.13253 297.544239,106.437751 296.88786,106.662651 C296.231481,106.88755 295.48834,107 294.658436,107 Z M322.324274,113 C323.573883,113 324.741487,112.847928 325.827085,112.543783 C326.912684,112.239639 327.908466,111.814617 328.814433,111.268717 C329.814121,110.644831 330.704467,109.864973 331.485473,108.929144 C332.266479,107.993316 332.922524,106.963904 333.453608,105.840909 C333.953452,104.717914 334.336145,103.497438 334.601687,102.179479 C334.867229,100.86152 335,99.4694742 335,98.0033422 L335,93.0434492 C335,91.4993316 334.855514,90.0409982 334.566542,88.6684492 C334.27757,87.2959002 333.859731,86.0325312 333.313027,84.8783422 C332.813183,83.8645276 332.215714,82.9364973 331.520619,82.0942513 C330.825523,81.2520053 330.017182,80.5345365 329.095595,79.9418449 C328.174008,79.317959 327.139175,78.8383467 325.991097,78.503008 C324.843018,78.1676693 323.612933,78 322.300843,78 C321.004374,78 319.801624,78.1637701 318.692596,78.4913102 C317.583568,78.8188503 316.58388,79.2867647 315.693533,79.8950535 C314.787566,80.5189394 313.987035,81.2676025 313.29194,82.1410428 C312.596845,83.0144831 312.007185,83.9893048 311.522962,85.065508 C311.023118,86.2040998 310.64433,87.4440731 310.386598,88.7854278 C310.128866,90.1267825 310,91.546123 310,93.0434492 L310,98.0033422 C310,99.4070856 310.113246,100.740642 310.339738,102.004011 C310.566229,103.26738 310.898157,104.437166 311.33552,105.513369 C311.819744,106.683155 312.421118,107.732063 313.139644,108.660094 C313.858169,109.588124 314.670415,110.379679 315.576382,111.034759 C316.497969,111.658645 317.521087,112.142157 318.645736,112.485294 C319.770384,112.828431 320.996564,113 322.324274,113 Z M322.334004,108 C321.684775,108 321.105634,107.899225 320.596579,107.697674 C320.087525,107.496124 319.633803,107.209302 319.235412,106.837209 C318.807512,106.418605 318.434943,105.872093 318.117706,105.197674 C317.800469,104.523256 317.560698,103.775194 317.39839,102.953488 C317.250838,102.302326 317.147552,101.596899 317.088531,100.837209 C317.02951,100.077519 317,99.2868217 317,98.4651163 L317,93.4883721 C317,92.620155 317.033199,91.7906977 317.099598,91 C317.165996,90.2093023 317.272971,89.4806202 317.420523,88.8139535 C317.612341,87.9457364 317.881623,87.1860465 318.22837,86.5348837 C318.575117,85.8837209 318.999329,85.3410853 319.501006,84.9069767 C319.869886,84.6124031 320.28672,84.3875969 320.751509,84.2325581 C321.216298,84.0775194 321.736419,84 322.311871,84 C322.916834,84 323.466465,84.0852713 323.960765,84.255814 C324.455064,84.4263566 324.901408,84.6666667 325.299799,84.9767442 C325.801476,85.3953488 326.236754,85.9341085 326.605634,86.5930233 C326.974514,87.251938 327.269618,88 327.490946,88.8372093 C327.668008,89.503876 327.797116,90.2286822 327.87827,91.0116279 C327.959423,91.7945736 328,92.620155 328,93.4883721 L328,98.4651163 C328,99.3023256 327.959423,100.108527 327.87827,100.883721 C327.797116,101.658915 327.675386,102.372093 327.513078,103.023256 C327.306506,103.860465 327.029846,104.608527 326.683099,105.267442 C326.336351,105.926357 325.91214,106.472868 325.410463,106.906977 C325.012072,107.263566 324.554661,107.534884 324.038229,107.72093 C323.521797,107.906977 322.953722,108 322.334004,108 Z M348.860099,113 C350.325452,113 351.703941,112.813187 352.995567,112.43956 C354.287192,112.065934 355.469294,111.528846 356.541872,110.828297 C357.463383,110.236722 358.30936,109.501145 359.079803,108.621566 C359.850246,107.741987 360.522496,106.780678 361.096552,105.737637 C361.700821,104.570055 362.16913,103.285714 362.501478,101.884615 C362.833826,100.483516 363,98.9967949 363,97.4244505 L363,94.6222527 C363,92.9876374 362.822496,91.4464286 362.467488,89.9986264 C362.112479,88.5508242 361.610181,87.2275641 360.960591,86.0288462 C360.401642,85.0480769 359.748276,84.1412546 359.000493,83.3083791 C358.252709,82.4755037 357.402956,81.7710623 356.451232,81.1950549 C355.363547,80.4945055 354.155008,79.9535256 352.825616,79.5721154 C351.496223,79.1907051 350.068637,79 348.542857,79 L340,79 L340,113 L348.860099,113 Z M348.426966,107 L346,107 L346,84 L348.11236,84 C348.876404,84 349.58427,84.0879907 350.235955,84.2639721 C350.88764,84.4399534 351.483146,84.6886228 352.022472,85.00998 C352.726592,85.4384564 353.344569,85.9893546 353.876404,86.6626747 C354.40824,87.3359947 354.838951,88.1011311 355.168539,88.9580838 C355.438202,89.677312 355.644195,90.4692282 355.786517,91.3338323 C355.928839,92.1984365 356,93.1127745 356,94.0768463 L356,96.8772455 C356,97.9025283 355.928839,98.8551231 355.786517,99.7350299 C355.644195,100.614937 355.438202,101.414504 355.168539,102.133733 C354.838951,102.96008 354.445693,103.683134 353.988764,104.302894 C353.531835,104.922655 353.018727,105.43147 352.449438,105.829341 C351.895131,106.21191 351.280899,106.502661 350.606742,106.701597 C349.932584,106.900532 349.205993,107 348.426966,107 Z M371.906667,113 L373.913333,105.901099 L384.11,105.901099 L386.093333,113 L393,113 L382.08,79 L376.13,79 L365,113 L371.906667,113 Z M383,100 L376,100 L379.546358,88 L383,100 Z M404.120647,116 L417,79 L410.879353,79 L398,116 L404.120647,116 Z M425,109 L446,100.589583 L446,95.3875 L425,87 L425,93.1645833 L438.393333,97.4958333 L439.793333,97.9541667 L438.37,98.4125 L425,102.8125 L425,109 Z" id="&lt;IANSVOBODA/&gt;"></path>
        </g>
    </g>
</svg>